<?xml version="1.0" encoding="UTF-8" standalone="no"?>
<!-- Created with Inkscape (http://www.inkscape.org/) -->
<svg
   xmlns:dc="http://purl.org/dc/elements/1.1/"
   xmlns:cc="http://creativecommons.org/ns#"
   xmlns:rdf="http://www.w3.org/1999/02/22-rdf-syntax-ns#"
   xmlns:svg="http://www.w3.org/2000/svg"
   xmlns="http://www.w3.org/2000/svg"
   xmlns:sodipodi="http://sodipodi.sourceforge.net/DTD/sodipodi-0.dtd"
   xmlns:inkscape="http://www.inkscape.org/namespaces/inkscape"
   width="347.15823"
   height="320.54614"
   id="svg5511"
   sodipodi:version="0.32"
   inkscape:version="0.46"
   version="1.0"
   sodipodi:docname="Conservative_Party_of_Canada.svg"
   inkscape:output_extension="org.inkscape.output.svg.inkscape">
  <defs
     id="defs5513">
    <inkscape:perspective
       sodipodi:type="inkscape:persp3d"
       inkscape:vp_x="0 : 526.18109 : 1"
       inkscape:vp_y="0 : 1000 : 0"
       inkscape:vp_z="744.09448 : 526.18109 : 1"
       inkscape:persp3d-origin="372.04724 : 350.78739 : 1"
       id="perspective5519" />
  </defs>
  <sodipodi:namedview
     id="base"
     pagecolor="#ffffff"
     bordercolor="#666666"
     borderopacity="1.0"
     gridtolerance="10000"
     guidetolerance="10"
     objecttolerance="10"
     inkscape:pageopacity="0.0"
     inkscape:pageshadow="2"
     inkscape:zoom="1"
     inkscape:cx="211.02587"
     inkscape:cy="108.72365"
     inkscape:document-units="px"
     inkscape:current-layer="layer1"
     showgrid="false"
     inkscape:window-width="1280"
     inkscape:window-height="744"
     inkscape:window-x="0"
     inkscape:window-y="22" />
  <metadata
     id="metadata5516">
    <rdf:RDF>
      <cc:Work
         rdf:about="">
        <dc:format>image/svg+xml</dc:format>
        <dc:type
           rdf:resource="http://purl.org/dc/dcmitype/StillImage" />
      </cc:Work>
    </rdf:RDF>
  </metadata>
  <g
     inkscape:label="Layer 1"
     inkscape:groupmode="layer"
     id="layer1"
     transform="translate(25.007682,-9.2319566)">
    <path
       d="M 127.93607,287.2434 C 115.04735,294.80555 110.34287,294.99996 102.60575,294.35843 C 91.933194,293.44476 76.808869,281.45028 71.482309,257.46132 C 62.578779,217.49267 74.223349,164.94635 101.03111,116.2686 C 136.85903,51.241797 193.66271,10.262275 242.28215,9.2708366 C 242.02943,9.2513954 241.73783,9.2513954 241.50455,9.2319566 L 154.37447,9.2902766 C 104.99687,8.3182766 42.575019,49.725477 5.8917393,116.32691 C -20.97434,165.12132 -30.0917,216.65675 -22.35458,256.93643 C -20.29394,267.57011 -15.239541,278.1066 -9.3686607,285.90203 C -4.0421007,292.99764 7.3497393,305.84748 21.268779,311.67947 C 31.999659,316.15068 49.281819,319.24164 66.155749,317.00603 C 91.058394,313.25411 127.93607,287.2434 127.93607,287.2434"
       style="fill:#0c499c;fill-opacity:1;fill-rule:nonzero;stroke:none"
       id="path3496" />
    <path
       d="M 322.10279,114.519 C 322.37495,103.12716 321.48071,92.299081 319.49783,82.073629 C 317.45663,71.439964 312.38279,60.903475 306.53135,53.127477 C 301.18535,46.012437 288.27719,32.773797 275.87447,27.330597 C 261.81935,21.206997 245.35367,19.865637 230.96807,22.004037 C 208.78703,23.792517 169.22663,51.786117 169.22663,51.786117 C 182.09591,44.223955 186.80039,44.010115 194.55695,44.671077 C 205.22951,45.545877 220.33439,57.559797 225.66095,81.548748 C 228.98519,96.556441 229.43231,113.58587 227.27447,131.25683 L 322.10279,114.519 z"
       style="fill:#0c499c;fill-opacity:1;fill-rule:nonzero;stroke:none"
       id="path3498" />
    <path
       d="M 165.80519,200.19108 L 208.06775,180.14844 L 199.39751,175.87164 L 216.50471,155.42076 L 192.34079,160.57235 L 194.09039,149.84148 L 169.86815,168.951 C 169.71263,169.10651 169.45991,169.2426 169.20719,169.2426 C 168.76007,169.2426 168.46847,168.89267 168.52679,168.44555 C 168.54623,168.27059 168.66287,168.11507 168.76007,167.99844 L 186.76151,136.2918 L 174.70871,141.32676 L 172.37591,121.51739 L 154.25783,141.40451 L 146.19023,136.40844 L 138.74471,168.27059 L 138.74471,168.38723 C 138.64751,168.89267 138.14207,169.35923 137.59775,169.35923 C 137.18951,169.35923 136.87847,169.08708 136.80071,168.71771 L 127.64447,150.01643 L 120.82103,160.74732 L 100.75895,155.75124 L 101.57543,176.1438 L 89.483751,180.47892 L 115.35839,199.9578 C 115.80551,200.26883 116.01935,200.73539 115.88327,201.3186 C 115.82495,201.88235 115.43615,202.36836 114.95015,202.65996 L 104.19983,212.32164 L 135.51767,208.62803 L 125.03951,233.31683 L 130.54103,233.29739 L 139.75559,208.84187 L 168.00191,212.08835 L 164.85263,202.29059 C 164.65823,202.05732 164.58047,201.76572 164.63879,201.45467 C 164.71655,200.8326 165.24143,200.3466 165.80519,200.19108"
       style="fill:#ee3224;fill-opacity:1;fill-rule:nonzero;stroke:none"
       id="path3500" />
    <path
       d="M 303.63479,197.70275 C 299.94119,206.89787 297.14183,211.97171 291.25151,222.7026 C 287.73287,229.09835 283.96151,235.22195 279.97631,241.09283 C 242.28215,296.59403 185.12855,329.331 141.42743,329.71979 L 55.658139,329.77811 C 55.424859,329.77811 55.152699,329.73923 54.861099,329.73923 C 103.49999,328.74779 160.30367,287.76827 196.11215,222.74147 C 197.27855,220.64195 198.38663,218.73683 199.47527,216.61787 L 199.92239,216.55955 L 303.63479,197.70275 z"
       style="fill:#0c499c;fill-opacity:1;fill-rule:nonzero;stroke:none"
       id="path3502" />
  </g>
</svg>
